<svg xmlns="http://www.w3.org/2000/svg" fill="none" viewBox="0 0 14 14">
  <g>
    <path stroke="currentColor" stroke-linecap="round" stroke-linejoin="round" d="M5.10412 9.18338c-0.74886 0.00011 -1.49769 -0.02062 -2.2601 -0.06218 -0.96321 -0.0525 -1.72991 -0.81983 -1.78237 -1.78432 -0.082302 -1.51315 -0.082302 -2.9771 0 -4.49026 0.05246 -0.96448 0.81925 -1.73182 1.78245 -1.78432 1.52094 -0.082904 2.98781 -0.082904 4.50875 0 0.9632 0.0525 1.72998 0.81976 1.78245 1.78425 0.036 0.66194 0.05626 1.31447 0.06076 1.96582" stroke-width="1"></path>
    <path stroke="currentColor" stroke-linecap="round" stroke-linejoin="round" d="M11.1557 4.87904c-1.52519 -0.08303 -2.99937 -0.08302 -4.5246 0.00001 -0.9632 0.05244 -1.72999 0.81975 -1.78245 1.78423 -0.0823 1.51316 -0.0823 2.97711 0 4.49022 0.05246 0.9645 0.81917 1.7319 1.78237 1.7844 0.76241 0.0415 1.51124 0.0622 2.2601 0.0621 0.74886 0.0001 1.50228 -0.0206 2.26468 -0.0622 0.9632 -0.0525 1.7299 -0.8198 1.7824 -1.7843 0.0823 -1.51315 0.0823 -2.9771 0 -4.49026 -0.0525 -0.96448 -0.8193 -1.73177 -1.7825 -1.7842Z" stroke-width="1"></path>
    <path stroke="currentColor" stroke-linecap="round" stroke-linejoin="round" d="M5.10413 9.1833c1.27261 0.00018 3.2562 -0.09655 4.525 -0.1833" stroke-width="1"></path>
    <path stroke="currentColor" stroke-linecap="round" stroke-linejoin="round" d="M8.18138 10.4966c0.59159 -0.2962 1.18317 -0.88857 1.47896 -1.48092 -0.29579 -0.59239 -0.88737 -1.18476 -1.47896 -1.48095" stroke-width="1"></path>
  </g>
</svg>
