<svg xmlns="http://www.w3.org/2000/svg" fill="none" viewBox="0 0 14 14"><g>
    <path stroke="currentColor" stroke-linecap="round" stroke-linejoin="round" d="M2.82817 2.3203C3.76392 1.131 5.17497 0.5 7 0.5c0.8351 0 1.58351 0.132119 2.23938 0.38939M4.69651 13.1257C2.62862 12.281 1.5 10.171 1.5 7.0204c0 -0.32616 0.01209 -0.64116 0.03607 -0.94476M7.77889 13.5C10.8107 13.1718 12.5 10.8749 12.5 7.0204c0 -1.67943 -0.3207 -3.06316 -0.9334 -4.11719" stroke-width="1"></path>
    <path stroke="currentColor" stroke-linecap="round" stroke-linejoin="round" d="M7.02344 6.20459c-0.04884 0.25553 -0.07373 0.53516 -0.07373 0.83775 0 0.35425 0.03412 0.67704 0.10083 0.96654" stroke-width="1"></path>
    <path stroke="currentColor" stroke-linecap="round" stroke-linejoin="round" d="M4.0696 5.65287c0.24849 -1.00211 0.7959 -1.69688 1.60512 -2.04032m2.65068 0c1.13732 0.48269 1.7575 1.65937 1.7575 3.40789 0 0.46475 -0.0438 0.8891 -0.12952 1.27075M8.50616 10.3435c-0.42375 0.2187 -0.92785 0.3317 -1.5061 0.3317 -1.54752 0 -2.56401 -0.80941 -2.93046 -2.28719 -0.03096 -0.12483 -0.05727 -0.25442 -0.07888 -0.3887" stroke-width="1"></path>
  </g>
</svg>
