<svg xmlns="http://www.w3.org/2000/svg" fill="none" viewBox="0 0 14 14">
  <g>
    <path stroke="currentColor" stroke-linecap="round" stroke-linejoin="round" d="M8.93409 6.53786c0.79579 0 1.24341 -0.44763 1.24341 -1.24342 0 -0.79578 -0.44762 -1.24341 -1.24341 -1.24341 -0.79578 0 -1.24342 0.44763 -1.24342 1.24341 0 0.79579 0.44764 1.24342 1.24342 1.24342" stroke-width="1"></path>
    <path stroke="currentColor" stroke-linecap="round" stroke-linejoin="round" d="M9.40869 12.1013c-0.82924 -1.9524 -2.76062 -5.28709 -4.78125 -5.28709 -0.99608 0.00013 -1.97045 0.81053 -2.80176 1.86621" stroke-width="1"></path>
    <path stroke="currentColor" stroke-linecap="round" stroke-linejoin="round" d="M1.9642 10.093c0.11179 1.0084 0.91917 1.8155 1.92713 1.9314C4.89879 12.1403 5.93789 12.25 7 12.25s2.10121 -0.1097 3.1087 -0.2256c1.0079 -0.1159 1.8153 -0.923 1.9271 -1.9314 0.1111 -1.00244 0.2142 -2.0363 0.2142 -3.093s-0.1031 -2.09056 -0.2142 -3.09302c-0.1118 -1.00843 -0.9192 -1.81551 -1.9271 -1.93143C9.10121 1.85969 8.06211 1.75 7 1.75s-2.10121 0.10969 -3.10867 0.22555c-1.00796 0.11592 -1.81534 0.923 -1.92713 1.93143C1.85308 4.90943 1.75 5.94329 1.75 7c0 1.0567 0.10308 2.09056 0.2142 3.093" stroke-width="1"></path>
  </g>
</svg>
