<svg xmlns="http://www.w3.org/2000/svg" fill="none" viewBox="0 0 14 14"><g>
    <path stroke="currentColor" stroke-linecap="round" stroke-linejoin="round" d="M3.67622 11.3492c0.06467 0.4772 0.45196 0.85 0.93155 0.8939 1.23085 0.1129 2.51681 0.2579 3.83986 0.2579 1.32306 0 2.60897 -0.145 3.83987 -0.2579 0.4796 -0.0439 0.8669 -0.4167 0.9315 -0.8939 0.1303 -0.961 0.2812 -1.96219 0.2812 -2.99077 0 -1.02858 -0.1509 -2.02973 -0.2812 -2.99078 -0.0646 -0.47723 -0.4519 -0.84996 -0.9315 -0.89394 -1.2309 -0.11288 -2.51681 -0.25789 -3.83987 -0.25789 -1.32305 0 -2.60901 0.14501 -3.83986 0.25789 -0.47959 0.04398 -0.86688 0.41671 -0.93155 0.89394 -0.13024 0.96105 -0.2812 1.9622 -0.2812 2.99078s0.15096 2.02977 0.2812 2.99077Z" stroke-width="1"></path>
    <path stroke="currentColor" stroke-linecap="round" stroke-linejoin="round" d="M10.5702 2.60438c-0.062 -0.44978 -0.4482 -0.80212 -0.92813 -0.84503 -1.26878 -0.11345 -2.59481 -0.26045 -3.9593 -0.26045s-2.69052 0.147 -3.95931 0.26045c-0.4799 0.04291 -0.86609 0.39525 -0.928163 0.84503C0.660208 3.58324 0.5 4.60394 0.5 5.6531c0 1.04916 0.160208 2.06986 0.295298 3.04872 0.062072 0.44978 0.448262 0.80212 0.928172 0.84503" stroke-width="1"></path>
    <path stroke="currentColor" stroke-linecap="round" stroke-linejoin="round" d="M6.88077 8.35839c0 0.31467 0.04233 0.73738 0.09247 1.1277 0.07411 0.57701 0.64667 0.94951 1.18619 0.73191 0.76895 -0.31015 1.47844 -0.75074 2.00687 -1.36686 0.2438 -0.28435 0.2438 -0.70116 0 -0.98551 -0.52838 -0.61614 -1.23789 -1.05673 -2.00684 -1.36683 -0.5395 -0.21758 -1.11204 0.15485 -1.18618 0.73183 -0.05016 0.39034 -0.09251 0.81308 -0.09251 1.12776Z" stroke-width="1"></path>
  </g>
</svg>
