<svg xmlns="http://www.w3.org/2000/svg" fill="none" viewBox="0 0 14 14">
  <g>
    <path stroke="currentColor" stroke-linecap="round" stroke-linejoin="round" d="M7.93213 0.5c3.57577 0.333177 5.56777 2.63679 5.56777 6.49975 0 3.86295 -1.992 6.16655 -5.56777 6.49975" stroke-width="1"></path>
    <path stroke="currentColor" stroke-linecap="round" stroke-linejoin="round" d="M1.05416 3.74778c0.3036 -0.62681 0.70423 -1.16445 1.19698 -1.608M4.07884 0.947115C4.67348 0.718242 5.33762 0.568037 6.06781 0.5M0.553043 5.94655C0.517796 6.28346 0.5 6.63464 0.5 6.99975c0 0.36512 0.017796 0.7163 0.053043 1.05321" stroke-width="1"></path>
    <path stroke="currentColor" stroke-linecap="round" stroke-linejoin="round" d="M6.06785 13.4997c-0.73018 -0.068 -1.39433 -0.2182 -1.98896 -0.4471M1.0542 10.252c0.3036 0.6268 0.70423 1.1644 1.19698 1.608" stroke-width="1"></path>
    <path stroke="currentColor" stroke-linecap="round" stroke-linejoin="round" d="M6.45443 9.38412c1.28218 -0.68311 2.98545 -1.71628 2.98545 -2.38436 0 -0.66807 -1.70327 -1.70125 -2.98545 -2.38436 -0.64327 -0.34272 -1.39437 0.13329 -1.39437 0.86216l0 3.0444c0 0.72886 0.7511 1.20488 1.39437 0.86216Z" stroke-width="1"></path>
  </g>
</svg>
