<svg xmlns="http://www.w3.org/2000/svg" fill="none" viewBox="0 0 14 14"><g>
    <path stroke="currentColor" stroke-linecap="round" stroke-linejoin="round" d="M12.4218 4.2041c0.3607 0.38464 0.6016 0.88227 0.6603 1.43104 0.091 0.85081 0.1679 1.7243 0.1679 2.61482 0 0.89053 -0.0769 1.76404 -0.1679 2.61484 -0.1233 1.1525 -1.0502 2.0795 -2.2022 2.2079 -0.8556 0.0953 -1.73418 0.1773 -2.62988 0.1773 -0.89571 0 -1.77424 -0.082 -2.62988 -0.1773 -0.6025 -0.0672 -1.14345 -0.3528 -1.54006 -0.7749" stroke-width="1"></path>
    <path stroke="currentColor" stroke-linecap="round" stroke-linejoin="round" d="M0.917894 8.36482C1.0412 9.51734 1.96816 10.4443 3.12013 10.5727c0.85563 0.0954 1.73416 0.1773 2.62987 0.1773s1.77424 -0.0819 2.62987 -0.1773c1.15197 -0.1284 2.07893 -1.05536 2.20223 -2.20788 0.091 -0.85081 0.1679 -1.7243 0.1679 -2.61482 0 -0.89053 -0.0769 -1.76402 -0.1679 -2.61482 -0.1233 -1.15252 -1.05026 -2.07949 -2.20223 -2.207893C7.52424 0.831914 6.64571 0.75 5.75 0.75S3.97576 0.831914 3.12012 0.927287C1.96816 1.05569 1.0412 1.98266 0.917893 3.13518 0.826867 3.98598 0.75 4.85947 0.75 5.75c0 0.89052 0.076867 1.76401 0.167894 2.61482Z" stroke-width="1"></path>
    <path stroke="currentColor" stroke-linecap="round" stroke-linejoin="round" d="M4.07227 5.75c0 0.49386 0.1027 1.2445 0.18127 1.74652 0.04471 0.2857 0.32631 0.4681 0.60227 0.38168 1.13451 -0.35526 2.20761 -0.93992 2.8974 -1.87078 0.1135 -0.15316 0.11351 -0.36169 0.00002 -0.51486 -0.68972 -0.93087 -1.76286 -1.51551 -2.89736 -1.87076 -0.27595 -0.08641 -0.55753 0.09597 -0.60226 0.38165 -0.0786 0.50202 -0.18134 1.25268 -0.18134 1.74655Z" stroke-width="1"></path>
  </g>
</svg>
