<?xml version="1.0" encoding="UTF-8"?>
<svg width="403px" height="59px" viewBox="0 0 403 59" version="1.1" xmlns="http://www.w3.org/2000/svg" xmlns:xlink="http://www.w3.org/1999/xlink">
    <title>statamic-mux</title>
    <g id="statamic-mux" stroke="none" stroke-width="1" fill="none" fill-rule="evenodd">
        <g id="statamic-outline" transform="translate(2.707026, 0.981049)" fill="#000000" fill-rule="nonzero">
            <path d="M14.5502652,48.7264696 C23.2250534,48.7264696 29.3158621,44.2352672 29.3158621,37.7137953 C29.3158621,32.8842146 26.2089344,29.8080486 19.6874624,28.4237739 L13.842747,27.1933075 C10.3359178,26.424266 8.95164308,25.1630379 8.95164308,23.16353 C8.95164308,20.8256439 11.5356225,19.1645142 14.9194051,19.1645142 C18.6108043,19.1645142 20.5795506,21.0717372 21.3793538,23.4711466 L28.5160589,22.0561103 C27.1317842,16.7343431 22.6098202,13.1967522 14.8271202,13.1967522 C6.58299526,13.1967522 0.953611462,17.288053 0.953611462,23.6557166 C0.953611462,28.7006289 4.12206245,31.8690798 10.6127727,33.2841162 L16.4882498,34.5453443 C19.6259391,35.2221008 21.1332605,36.4833289 21.1332605,38.4828368 C21.1332605,40.8207229 18.641566,42.6048992 14.7040735,42.6048992 C10.7973427,42.6048992 8.3979332,40.9745312 7.4750834,37.559987 L0,38.9750233 C1.19970474,45.2196403 6.64451858,48.7264696 14.5502652,48.7264696 Z" id="Path"></path>
            <path d="M51.9437949,13.6274154 L45.2992763,13.6274154 L45.2992763,5.44481383 L37.3012447,5.44481383 L37.3012447,13.6274154 L32.4101407,13.6274154 L32.4101407,19.9027941 L37.3012447,19.9027941 L37.3012447,39.005785 C37.3012447,45.0965937 40.9618822,48.4803763 47.5448775,48.4803763 C49.2367688,48.4803763 51.1439917,48.2650447 52.8974063,47.7420964 L51.6361783,41.5590028 C50.8671368,41.7435727 49.4521004,41.9589043 48.7138205,41.9589043 C46.2836494,41.9589043 45.2992763,40.8207229 45.2992763,38.3290285 L45.2992763,19.9027941 L51.9437949,19.9027941 L51.9437949,13.6274154 Z" id="Path"></path>
            <path d="M68.0809944,48.7264696 C73.4335232,48.7264696 76.6942592,46.2347751 78.2015806,43.2816557 L78.5091972,43.2816557 L78.5091972,48.0189514 L86.1688505,48.0189514 L86.1688505,25.0399913 C86.1688505,15.8730166 78.6014821,13.1967522 72.1415335,13.1967522 C65.2509217,13.1967522 59.5907762,16.1191099 57.5605066,22.1791569 L64.9740667,23.6864783 C65.8046315,21.4101154 68.1732794,19.3490842 72.1722952,19.3490842 C76.079026,19.3490842 78.1708189,21.3178304 78.1708189,24.6708514 L78.1708189,24.8246597 C78.1708189,27.1933075 75.6483628,27.2855925 69.6806007,27.9315873 C63.0360821,28.6391055 56.5761335,30.6078518 56.5761335,38.3597901 C56.5761335,45.1273553 61.5287608,48.7264696 68.0809944,48.7264696 Z M70.1420256,42.7894692 C66.758243,42.7894692 64.3280719,41.2513862 64.3280719,38.2675051 C64.3280719,35.1298158 67.0350979,33.8070644 70.6342122,33.3148779 C72.6952434,33.0380229 77.1556841,32.484313 78.2323422,31.6229866 L78.2323422,35.6835257 C78.2323422,39.4979715 75.0638912,42.7894692 70.1420256,42.7894692 Z" id="Shape"></path>
            <path d="M110.457916,13.6274154 L103.813397,13.6274154 L103.813397,5.44481383 L95.8153658,5.44481383 L95.8153658,13.6274154 L90.9242618,13.6274154 L90.9242618,19.9027941 L95.8153658,19.9027941 L95.8153658,39.005785 C95.8153658,45.0965937 99.4760033,48.4803763 106.058999,48.4803763 C107.75089,48.4803763 109.658113,48.2650447 111.411527,47.7420964 L110.150299,41.5590028 C109.381258,41.7435727 107.966221,41.9589043 107.227942,41.9589043 C104.79777,41.9589043 103.813397,40.8207229 103.813397,38.3290285 L103.813397,19.9027941 L110.457916,19.9027941 L110.457916,13.6274154 Z" id="Path"></path>
            <path d="M126.595115,48.7264696 C131.947644,48.7264696 135.20838,46.2347751 136.715702,43.2816557 L137.023318,43.2816557 L137.023318,48.0189514 L144.682972,48.0189514 L144.682972,25.0399913 C144.682972,15.8730166 137.115603,13.1967522 130.655655,13.1967522 C123.765043,13.1967522 118.104897,16.1191099 116.074628,22.1791569 L123.488188,23.6864783 C124.318753,21.4101154 126.6874,19.3490842 130.686416,19.3490842 C134.593147,19.3490842 136.68494,21.3178304 136.68494,24.6708514 L136.68494,24.8246597 C136.68494,27.1933075 134.162484,27.2855925 128.194722,27.9315873 C121.550203,28.6391055 115.090255,30.6078518 115.090255,38.3597901 C115.090255,45.1273553 120.042882,48.7264696 126.595115,48.7264696 Z M128.656147,42.7894692 C125.272364,42.7894692 122.842193,41.2513862 122.842193,38.2675051 C122.842193,35.1298158 125.549219,33.8070644 129.148333,33.3148779 C131.209364,33.0380229 135.669805,32.484313 136.746463,31.6229866 L136.746463,35.6835257 C136.746463,39.4979715 133.578012,42.7894692 128.656147,42.7894692 Z" id="Shape"></path>
            <path d="M153.068259,48.0189514 L161.06629,48.0189514 L161.06629,26.9472142 C161.06629,22.3637269 163.957886,19.9027941 167.464716,19.9027941 C170.848498,19.9027941 173.278669,22.1791569 173.278669,25.6859862 L173.278669,48.0189514 L181.092131,48.0189514 L181.092131,26.424266 C181.092131,22.5790585 183.460779,19.9027941 187.336748,19.9027941 C190.628246,19.9027941 193.273749,21.810017 193.273749,26.0551261 L193.273749,48.0189514 L201.302542,48.0189514 L201.302542,24.8246597 C201.302542,17.195768 196.565246,13.0737055 190.382152,13.0737055 C185.552572,13.0737055 181.245939,15.5961617 179.40024,20.5487889 C177.92368,15.657685 175.001322,13.0737055 170.571643,13.0737055 C166.480343,13.0737055 162.604373,15.2885451 160.820197,20.179649 L160.574104,13.6274154 L153.068259,13.6274154 L153.068259,48.0189514 Z" id="Path"></path>
            <path d="M209.687868,48.0189514 L217.6859,48.0189514 L217.6859,13.6274154 L209.687868,13.6274154 L209.687868,48.0189514 Z M213.686884,8.76707312 C216.240102,8.76707312 218.362656,6.79832688 218.362656,4.36815573 C218.362656,1.93798458 216.240102,0 213.686884,0 C211.133666,0 209.041873,1.93798458 209.041873,4.36815573 C209.041873,6.79832688 211.133666,8.76707312 213.686884,8.76707312 Z" id="Shape"></path>
            <path d="M240.990555,48.7264696 C248.711731,48.7264696 254.4334,44.5428838 255.90996,37.6830336 L248.434876,36.1141889 C247.604311,39.8363498 244.98957,42.2357593 241.052078,42.2357593 C235.484217,42.2357593 232.715668,37.3446553 232.715668,30.9769917 C232.715668,24.5478047 235.484217,19.6874624 241.052078,19.6874624 C244.928047,19.6874624 247.481265,21.994587 248.342591,25.5629395 L255.817675,23.9940949 C254.341115,17.288053 248.650208,13.1967522 240.990555,13.1967522 C230.962253,13.1967522 224.563828,20.3026957 224.563828,31.0077534 C224.563828,41.5897644 230.962253,48.7264696 240.990555,48.7264696 Z" id="Path"></path>
        </g>
        <rect id="Rectangle" fill="#FA50B5" x="281.693878" y="5" width="117.612245" height="51" rx="23"></rect>
        <g id="Mux-Logo-Small-White" transform="translate(302.000000, 18.000000)" fill="#FFFFFF" fill-rule="nonzero">
            <path d="M47.73,0.00148687467 C46.09,0.00148687467 44.76,1.34148687 44.76,3.00148687 L44.76,12.0014869 C44.76,15.3114869 42.09,18.0014869 38.82,18.0014869 C35.55,18.0014869 32.88,15.3114869 32.88,12.0014869 L32.88,3.00148687 C32.88,1.34148687 31.55,0.00148687467 29.91,0.00148687467 C28.27,0.00148687467 26.94,1.34148687 26.94,3.00148687 L26.94,12.0014869 C26.94,18.6214869 32.27,24.0014869 38.82,24.0014869 C45.37,24.0014869 50.700056,18.6214869 50.700056,12.0014869 L50.700056,3.00148687 C50.71,1.34148687 49.38,0.00148687467 47.73,0.00148687467 L47.73,0.00148687467 Z" id="Path"></path>
            <path d="M60.92,12.0014869 L54.11,18.8814869 C52.95,20.0514869 52.95,21.9514869 54.11,23.1214869 C55.27,24.2914869 57.15,24.2914869 58.31,23.1214869 L65.12,16.2414869 L71.93,23.1214869 C73.09,24.2914869 74.97,24.2914869 76.13,23.1214869 C77.29,21.9514869 77.29,20.0514869 76.13,18.8814869 L69.32,12.0014869 L76.13,5.12148687 C77.29,3.95148687 77.29,2.05148687 76.13,0.881486875 C74.97,-0.288513125 73.09,-0.288513125 71.93,0.881486875 L65.12,7.76148687 L58.3,0.881486875 C57.14,-0.288513125 55.26,-0.288513125 54.1,0.881486875 C52.94,2.05148687 52.94,3.95148687 54.1,5.12148687 L60.92,12.0014869 Z" id="Path"></path>
            <path d="M21.93,0.231486875 C20.82,-0.228513125 19.54,0.0214868747 18.69,0.881486875 L11.88,7.76148687 L5.07,0.881486875 C4.22,0.0214868747 2.94,-0.238513125 1.83,0.231486875 C0.72,0.691486875 0,1.79148687 0,3.00148687 L0,21.0014869 C0,22.6614869 1.33,24.0014869 2.97,24.0014869 C4.61,24.0014869 5.94,22.6614869 5.94,21.0014869 L5.94,10.2414869 L9.78,14.1214869 C10.94,15.2914869 12.82,15.2914869 13.98,14.1214869 L17.82,10.2414869 L17.82,21.0014869 C17.82,22.6614869 19.15,24.0014869 20.79,24.0014869 C22.43,24.0014869 23.7601015,22.6614869 23.7601015,21.0014869 L23.7601015,3.00148687 C23.77,1.79148687 23.04,0.691486875 21.93,0.231486875 L21.93,0.231486875 Z" id="Path"></path>
        </g>
    </g>
</svg>